<svg xmlns="http://www.w3.org/2000/svg" viewBox="0 0 270.15 86.82"><defs><style>.cls-1{fill:#1e2e6c;}</style></defs><title>Rites</title><g id="Layer_1" data-name="Layer 1"><path class="cls-1" d="M2.34,50q7.52,0,15,0a2.09,2.09,0,0,0,2-.78c1.31-1.84,2.77-3.63,4.14-5.45L34.38,29.4a7.07,7.07,0,0,1,4.79-2.74,27.78,27.78,0,0,1,4.2-.3c4.2,0,8.4,0,12.6,0s8.51,0,12.76,0c4.74.06,8-1.26,9.86-4A60.64,60.64,0,0,0,81.67,17c.64-1.17.63-1.18-1.31-1.17q-22.54.11-45.09.24a23.67,23.67,0,0,0-3.47.19c-5.58.8-8.93,3.21-11.27,6.31s-4.48,6.15-6.72,9.23C9.66,37.57,5.53,43.3,1.35,49,.78,49.79,1,50,2.34,50Z"/><path class="cls-1" d="M69.92,48.85c-.59.78-.21.94,1,.92,1.82,0,3.65-.06,5.46,0A2.74,2.74,0,0,0,79,48.72c2-2.82,4.2-5.61,6.28-8.42a2.6,2.6,0,0,1,2.52-1.07c2.07.07,4.15,0,6.22,0,1.88,0,2.76.65,2.55,1.85-.18,1-.47,2.09-.66,3.14-.28,1.53-.51,3.06-.76,4.59-.11.69.35,1,1.49,1,2.27,0,4.55,0,6.83,0,.72,0,1-.1,1-.66a20.81,20.81,0,0,1,.6-2.75c.39-2.25,1.76-4.48,1.21-6.73-.41-1.66.54-2.25,2.61-2.92,5.29-1.71,7.79-4.9,10.12-8.14.46-.64-.28-.63-.89-.63h-6.53c-.83,0-1.32.19-1.52.73a7.14,7.14,0,0,1-2.27,2.8A9.3,9.3,0,0,1,101,33.8c-1.26-.06-2.53,0-3.79,0-1.68,0-3.35,0-5,0s-1.76-.22-1.05-1.15c1-1.29,1.94-2.6,3-3.88.52-.65.25-.86-.85-.85-2.12,0-4.25,0-6.38,0a1.74,1.74,0,0,0-1.62.67c-1.48,2-3,4.05-4.58,6.07C77.09,39.39,73.53,44.13,69.92,48.85Z"/><path class="cls-1" d="M178.16,46c-1.47,2.15.31,3.8,3.94,3.81h11.09c3.95,0,7.9,0,11.84,0a2,2,0,0,0,2-.81c.69-1,1.51-2,2.27-3s.79-1.15-1.16-1.15H190c-1.71,0-1.92-.22-1.2-1.18,1.08-1.45,2.24-2.88,3.22-4.36.63-1,1.55-1.32,3.23-1.3,5.67.06,11.34,0,17,0,1,0,1.68-.19,2.1-.83.73-1.09,1.59-2.14,2.39-3.21s.8-1.18-1.11-1.19H198.82c-1.43,0-1.64-.21-1-1,.71-1,1.45-2,2.25-2.93.55-.67.21-.87-.85-.86-1.82,0-3.65.06-5.47,0A2.93,2.93,0,0,0,190.82,29c-2.39,3.29-4.9,6.53-7.36,9.8C181.68,41.2,179.81,43.54,178.16,46Z"/><path class="cls-1" d="M253.93,32.72c-1.41-.09-2.83-.1-4.25-.12-2.27,0-4.55,0-6.83-.09-2.08-.07-2.66-.69-2-1.91a7.8,7.8,0,0,1,1.39-1.92c.64-.62.23-.77-.74-.76h-6.83a1.91,1.91,0,0,0-1.55.45c-1.68,2-3.11,4-3,6.37.08,1.26,1,2.11,2.87,2.57a22.2,22.2,0,0,0,5.32.63c2.79,0,5.57,0,8.35,0,2.17,0,3,.85,2.32,2.13a7.84,7.84,0,0,1-1.54,2.08,9.34,9.34,0,0,1-7.2,2.64c-5.71-.13-11.43,0-17.15-.06a2.51,2.51,0,0,0-2.28.85c-.79,1.11-1.65,2.2-2.5,3.29-.54.68-.21.89.95.88,3.75,0,7.49,0,11.24,0h0c2.73,0,5.48-.1,8.2,0a21.93,21.93,0,0,0,10.19-2c5.66-2.51,8.86-6.11,10.53-10.24C260.63,34.69,258.57,33.05,253.93,32.72Z"/><path class="cls-1" d="M41.32,27.93a5.5,5.5,0,0,0-4.52,1.78c-.77,1-1.51,1.95-2.25,2.93L22,49.19c-.66.87-.58,1,.95,1,2.54,0,5.07,0,7.6,0h0c2.48,0,5,0,7.44,0a2.17,2.17,0,0,0,2-.75Q48,39,56,28.69c.5-.64.14-.8-.82-.8C50.54,27.91,45.93,27.89,41.32,27.93Z"/><path class="cls-1" d="M146.53,49.77c1.06,0,2.12,0,3.19,0h0c.86,0,1.72-.05,2.57,0a2.65,2.65,0,0,0,2.66-1q7.45-10,15.05-19.91c.63-.82.21-.93-.95-.91-1.77,0-3.55.08-5.3,0a3,3,0,0,0-3,1.19c-2.27,3.11-4.61,6.19-6.94,9.28-2.67,3.56-5.32,7.11-8,10.65C145.28,49.66,145.55,49.79,146.53,49.77Z"/><path class="cls-1" d="M115.7,48.81c-.55.71-.33,1,1,1,1,0,2,0,3,0v0c1.06,0,2.13,0,3.19,0a1.78,1.78,0,0,0,1.57-.6q7.7-10.23,15.43-20.45c.48-.64.15-.8-.82-.79-2,0-3.95,0-5.92,0a2.44,2.44,0,0,0-2.4,1c-3.33,4.49-6.73,9-10.11,13.44C119,44.49,117.37,46.66,115.7,48.81Z"/><path class="cls-1" d="M153.18,26.21H167.6c4.85,0,9.71,0,14.56,0a2.11,2.11,0,0,0,1.91-.71c.82-1.14,1.7-2.25,2.57-3.37.5-.66.22-.94-1-.94q-14.56,0-29.13,0a2.23,2.23,0,0,0-2,.81c-.76,1.08-1.59,2.14-2.39,3.21S151.51,26.21,153.18,26.21Z"/><path class="cls-1" d="M88.87,26.2c4.95,0,9.91,0,14.86,0h14.71c1.85,0,2.16-.19,2.25-1.37.16-2.17-2.11-3.57-6.16-3.6-7.43-.05-14.86,0-22.29,0a2.29,2.29,0,0,0-2.1.88c-.71,1-1.49,2-2.26,3S87.15,26.2,88.87,26.2Z"/><path class="cls-1" d="M62.05,14c5.2,0,8.86-2.72,8.73-5.66C70.67,6,68.3,4,65,3.18L65,1.86h-6L59,3.23c-3.43.83-5.86,2.9-5.63,5.2C53.38,11.31,57,14,62.05,14Z"/><path class="cls-1" d="M194.73,26.2h14c4.6,0,9.21,0,13.81,0a2.51,2.51,0,0,0,2.42-1c.69-1,1.46-2,2.2-2.95s.57-1.08-1.13-1.08c-6.53,0-13.05,0-19.58,0A18.49,18.49,0,0,0,194,25.32c-.27.22-.67.49-.44.76S194.33,26.2,194.73,26.2Z"/><path class="cls-1" d="M267.93,21.21c-5.51,0-11,.11-16.52,0a24.89,24.89,0,0,0-14.84,4.2c-.3.2-.82.4-.57.71s.74.11,1.13.11c4.6,0,9.2,0,13.8,0s9.1,0,13.64,0a2.32,2.32,0,0,0,2.2-.89c.71-1,1.49-2,2.25-3S269.62,21.21,267.93,21.21Z"/><path class="cls-1" d="M133.94,26.21c1.16,0,2.32,0,3.48,0h0c1,0,1.93-.06,2.87,0a2.09,2.09,0,0,0,2.09-.81q1.22-1.69,2.52-3.36c.45-.57.27-.84-.77-.84h-6.35a2.07,2.07,0,0,0-1.72.66c-1,1.23-1.84,2.48-2.78,3.71C132.92,26.06,133.18,26.22,133.94,26.21Z"/><path class="cls-1" d="M3.88,67.45V59.8H1.05v-1h6.8v1H5v7.65Z"/><path class="cls-1" d="M11.34,67.45V58.78h1.14v3.56h4.46V58.78h1.13v8.67H16.94V63.36H12.48v4.09Z"/><path class="cls-1" d="M22.28,67.45V58.78h6.2v1H23.41v2.66h4.75v1H23.41v3h5.27v1Z"/><path class="cls-1" d="M43.36,67.45V58.78h1.13v8.67Z"/><path class="cls-1" d="M48.77,67.45V58.78h1.17l4.5,6.81V58.78h1.09v8.67H54.37l-4.51-6.81v6.81Z"/><path class="cls-1" d="M59.79,67.45V58.78h5.79v1H60.93v2.69h4v1h-4v3.94Z"/><path class="cls-1" d="M69.36,67.45V58.78h3.8a5.2,5.2,0,0,1,1.75.23,1.91,1.91,0,0,1,1,.83,2.45,2.45,0,0,1,.36,1.3,2.21,2.21,0,0,1-.59,1.56,3,3,0,0,1-1.83.8,3,3,0,0,1,.69.44,5.91,5.91,0,0,1,.94,1.15l1.49,2.36H75.49l-1.13-1.8c-.33-.52-.61-.92-.82-1.2a2.85,2.85,0,0,0-.58-.58,1.64,1.64,0,0,0-.51-.23,3.26,3.26,0,0,0-.64,0H70.5v3.85Zm1.14-4.84h2.44a3.5,3.5,0,0,0,1.21-.17,1.27,1.27,0,0,0,.67-.52,1.45,1.45,0,0,0,.23-.78,1.32,1.32,0,0,0-.44-1,2.09,2.09,0,0,0-1.4-.39H70.5Z"/><path class="cls-1" d="M79.35,67.45l3.29-8.67h1.23l3.51,8.67h-1.3l-1-2.63H81.5l-1,2.63Zm2.47-3.56h2.91l-.89-2.4c-.28-.73-.48-1.33-.61-1.8a12.41,12.41,0,0,1-.46,1.66Z"/><path class="cls-1" d="M90.19,64.66l1.07-.09a2.5,2.5,0,0,0,.35,1.07,2,2,0,0,0,.87.67,3.26,3.26,0,0,0,1.31.26,3.11,3.11,0,0,0,1.15-.2,1.56,1.56,0,0,0,.74-.53,1.28,1.28,0,0,0,.24-.74,1.13,1.13,0,0,0-.23-.72,1.78,1.78,0,0,0-.77-.51,15,15,0,0,0-1.53-.42,7.76,7.76,0,0,1-1.66-.54,2.42,2.42,0,0,1-.91-.81,2,2,0,0,1-.3-1.08A2.24,2.24,0,0,1,92,58.93a4,4,0,0,1,1.58-.3,4.23,4.23,0,0,1,1.68.31,2.48,2.48,0,0,1,1.12.91,2.69,2.69,0,0,1,.42,1.37l-1.09.08a1.79,1.79,0,0,0-.59-1.24,2.31,2.31,0,0,0-1.5-.42,2.43,2.43,0,0,0-1.5.38,1.17,1.17,0,0,0-.47.92,1,1,0,0,0,.34.77,4.36,4.36,0,0,0,1.71.62,11.8,11.8,0,0,1,1.89.55,2.67,2.67,0,0,1,1.11.89A2.17,2.17,0,0,1,97,65a2.41,2.41,0,0,1-.39,1.31,2.72,2.72,0,0,1-1.13,1,3.84,3.84,0,0,1-1.65.34,5,5,0,0,1-1.95-.34,2.75,2.75,0,0,1-1.24-1A3,3,0,0,1,90.19,64.66Z"/><path class="cls-1" d="M103,67.45V59.8h-2.82v-1H107v1h-2.84v7.65Z"/><path class="cls-1" d="M110.49,67.45V58.78h3.8A5.2,5.2,0,0,1,116,59a1.91,1.91,0,0,1,.95.83,2.45,2.45,0,0,1,.36,1.3,2.21,2.21,0,0,1-.59,1.56,3,3,0,0,1-1.83.8,3,3,0,0,1,.69.44,5.91,5.91,0,0,1,.94,1.15l1.49,2.36h-1.43l-1.13-1.8c-.33-.52-.61-.92-.82-1.2a2.85,2.85,0,0,0-.58-.58,1.64,1.64,0,0,0-.51-.23,3.26,3.26,0,0,0-.64,0h-1.31v3.85Zm1.14-4.84h2.44a3.5,3.5,0,0,0,1.21-.17,1.27,1.27,0,0,0,.67-.52,1.45,1.45,0,0,0,.23-.78,1.32,1.32,0,0,0-.44-1,2.09,2.09,0,0,0-1.4-.39h-2.71Z"/><path class="cls-1" d="M127.05,58.78h1.13v5a5.94,5.94,0,0,1-.29,2.08,2.54,2.54,0,0,1-1,1.25,3.74,3.74,0,0,1-2,.48,4.08,4.08,0,0,1-2-.42A2.36,2.36,0,0,1,121.77,66a5.78,5.78,0,0,1-.33-2.17v-5h1.13v5a4.9,4.9,0,0,0,.21,1.67,1.59,1.59,0,0,0,.71.82,2.4,2.4,0,0,0,1.24.29,2.37,2.37,0,0,0,1.79-.57,3.37,3.37,0,0,0,.53-2.21Z"/><path class="cls-1" d="M138.49,64.41l1.13.29a3.9,3.9,0,0,1-1.28,2.16,3.56,3.56,0,0,1-2.27.74,4,4,0,0,1-2.25-.57,3.59,3.59,0,0,1-1.33-1.66,6,6,0,0,1-.45-2.32,5.16,5.16,0,0,1,.51-2.36A3.51,3.51,0,0,1,134,59.15a4.2,4.2,0,0,1,2.08-.52,3.31,3.31,0,0,1,3.39,2.53l-1.12.26a2.7,2.7,0,0,0-.87-1.38,2.34,2.34,0,0,0-1.43-.43,2.75,2.75,0,0,0-1.65.48,2.55,2.55,0,0,0-.93,1.29,5.2,5.2,0,0,0-.27,1.66,5.44,5.44,0,0,0,.32,1.94,2.36,2.36,0,0,0,1,1.23,2.78,2.78,0,0,0,1.46.41,2.43,2.43,0,0,0,1.61-.56A2.88,2.88,0,0,0,138.49,64.41Z"/><path class="cls-1" d="M145.5,67.45V59.8h-2.83v-1h6.8v1h-2.84v7.65Z"/><path class="cls-1" d="M158.55,58.78h1.14v5a6.18,6.18,0,0,1-.29,2.08,2.56,2.56,0,0,1-1.06,1.25,3.72,3.72,0,0,1-2,.48,4.05,4.05,0,0,1-2-.42,2.38,2.38,0,0,1-1.1-1.22,5.78,5.78,0,0,1-.33-2.17v-5h1.14v5a4.9,4.9,0,0,0,.21,1.67,1.54,1.54,0,0,0,.71.82,2.4,2.4,0,0,0,1.24.29A2.35,2.35,0,0,0,158,66a3.31,3.31,0,0,0,.53-2.21Z"/><path class="cls-1" d="M163.89,67.45V58.78h3.8a5.2,5.2,0,0,1,1.75.23,2,2,0,0,1,.95.83,2.45,2.45,0,0,1,.36,1.3,2.21,2.21,0,0,1-.59,1.56,3,3,0,0,1-1.83.8,3,3,0,0,1,.69.44,5.91,5.91,0,0,1,.94,1.15l1.49,2.36H170l-1.13-1.8c-.33-.52-.61-.92-.82-1.2a2.85,2.85,0,0,0-.58-.58,1.6,1.6,0,0,0-.52-.23,3.14,3.14,0,0,0-.63,0H165v3.85ZM165,62.61h2.44a3.54,3.54,0,0,0,1.21-.17,1.31,1.31,0,0,0,.67-.52,1.45,1.45,0,0,0,.23-.78,1.32,1.32,0,0,0-.44-1,2.09,2.09,0,0,0-1.4-.39H165Z"/><path class="cls-1" d="M175.84,67.45V58.78H182v1H177v2.66h4.74v1H177v3h5.26v1Z"/><path class="cls-1" d="M198.73,67.45V58.78H202a8.46,8.46,0,0,1,1.31.08,2.59,2.59,0,0,1,1.06.41,2.09,2.09,0,0,1,.68.83,2.63,2.63,0,0,1,.26,1.19,2.7,2.7,0,0,1-.69,1.87,3.33,3.33,0,0,1-2.52.77h-2.2v3.52Zm1.13-4.55h2.22a2.37,2.37,0,0,0,1.56-.41,1.49,1.49,0,0,0,.46-1.17,1.59,1.59,0,0,0-.27-.93,1.25,1.25,0,0,0-.71-.51,4.92,4.92,0,0,0-1.06-.08h-2.2Z"/><path class="cls-1" d="M210,67.45V58.78h6.2v1h-5.07v2.66h4.75v1h-4.75v3h5.27v1Z"/><path class="cls-1" d="M221,63.23a4.76,4.76,0,0,1,1.15-3.38,3.86,3.86,0,0,1,3-1.23,4.09,4.09,0,0,1,2.14.58,3.71,3.71,0,0,1,1.46,1.6,5.28,5.28,0,0,1,.5,2.33,5.19,5.19,0,0,1-.53,2.36,3.6,3.6,0,0,1-1.49,1.57,4.23,4.23,0,0,1-2.09.54,4.07,4.07,0,0,1-2.16-.59,3.76,3.76,0,0,1-1.44-1.62A4.89,4.89,0,0,1,221,63.23Zm1.17,0a3.47,3.47,0,0,0,.84,2.47,2.69,2.69,0,0,0,2.09.91,2.75,2.75,0,0,0,2.11-.91,3.73,3.73,0,0,0,.83-2.59,4.42,4.42,0,0,0-.36-1.85,2.74,2.74,0,0,0-1-1.22,2.82,2.82,0,0,0-1.53-.44,2.88,2.88,0,0,0-2.08.84A3.76,3.76,0,0,0,222.12,63.24Z"/><path class="cls-1" d="M233.91,67.45V58.78h3.24a8.32,8.32,0,0,1,1.3.08,2.53,2.53,0,0,1,1.06.41,2.11,2.11,0,0,1,.69.83,2.76,2.76,0,0,1,.26,1.19,2.67,2.67,0,0,1-.7,1.87,3.3,3.3,0,0,1-2.51.77h-2.2v3.52Zm1.14-4.55h2.21a2.38,2.38,0,0,0,1.57-.41,1.53,1.53,0,0,0,.46-1.17,1.59,1.59,0,0,0-.27-.93,1.24,1.24,0,0,0-.72-.51,4.79,4.79,0,0,0-1.06-.08h-2.19Z"/><path class="cls-1" d="M245.15,67.45V58.78h1.14v7.65h4.22v1Z"/><path class="cls-1" d="M255.18,67.45V58.78h6.2v1h-5.07v2.66h4.75v1h-4.75v3h5.27v1Z"/><path class="cls-1" d="M.75,83.3,4,75.37H5.25L8.74,83.3H7.45l-1-2.4H2.89L2,83.3ZM3.22,80H6.11l-.89-2.19c-.27-.67-.48-1.22-.61-1.65a9.46,9.46,0,0,1-.46,1.52Z"/><path class="cls-1" d="M21.07,80.19v-.93h3.61v3a6.2,6.2,0,0,1-1.71.92,5.4,5.4,0,0,1-1.82.31,5,5,0,0,1-2.28-.5,3.39,3.39,0,0,1-1.55-1.44,4.3,4.3,0,0,1-.53-2.12,4.71,4.71,0,0,1,.52-2.16,3.33,3.33,0,0,1,1.5-1.49,5,5,0,0,1,2.25-.49,4.93,4.93,0,0,1,1.68.28,2.8,2.8,0,0,1,1.17.78,3.23,3.23,0,0,1,.64,1.3l-1,.26a3,3,0,0,0-.48-1,2,2,0,0,0-.81-.55,3.22,3.22,0,0,0-1.18-.21,3.62,3.62,0,0,0-1.34.22,2.59,2.59,0,0,0-.91.58,2.73,2.73,0,0,0-.54.78,4,4,0,0,0-.32,1.6,3.68,3.68,0,0,0,.39,1.77,2.4,2.4,0,0,0,1.14,1.06,3.81,3.81,0,0,0,1.6.35,4.55,4.55,0,0,0,2.49-.82V80.19Z"/><path class="cls-1" d="M28.22,80.43a2.87,2.87,0,0,1,1-2.37,3,3,0,0,1,1.94-.64,2.89,2.89,0,0,1,2.09.78A2.83,2.83,0,0,1,34,80.35a3.55,3.55,0,0,1-.36,1.74,2.55,2.55,0,0,1-1,1,3.31,3.31,0,0,1-1.5.35A2.86,2.86,0,0,1,29,82.65,2.9,2.9,0,0,1,28.22,80.43Zm1.07,0a2.36,2.36,0,0,0,.52,1.65,1.81,1.81,0,0,0,2.6,0,2.38,2.38,0,0,0,.52-1.69,2.24,2.24,0,0,0-.52-1.61,1.81,1.81,0,0,0-2.6,0A2.33,2.33,0,0,0,29.29,80.43Z"/><path class="cls-1" d="M39.34,83.3,37,77.55H38.1L39.42,81c.15.38.28.76.4,1.16.09-.3.22-.67.39-1.09l1.37-3.51h1.08L40.32,83.3Z"/><path class="cls-1" d="M50.21,81.45l1.08.12a2.43,2.43,0,0,1-.95,1.37,3.39,3.39,0,0,1-3.92-.29,2.9,2.9,0,0,1-.79-2.18,3.08,3.08,0,0,1,.8-2.25,2.84,2.84,0,0,1,2.08-.8,2.76,2.76,0,0,1,2,.79,3,3,0,0,1,.78,2.21v.26H46.71a2.07,2.07,0,0,0,.58,1.44,1.87,1.87,0,0,0,2.27.23A1.91,1.91,0,0,0,50.21,81.45Zm-3.44-1.58h3.45a1.85,1.85,0,0,0-.4-1.08,1.63,1.63,0,0,0-1.29-.57,1.75,1.75,0,0,0-1.22.45A1.73,1.73,0,0,0,46.77,79.87Z"/><path class="cls-1" d="M55,83.3V77.55h.94v.87a2.38,2.38,0,0,1,.67-.8,1.2,1.2,0,0,1,.67-.2,2.13,2.13,0,0,1,1.07.32l-.36.9a1.56,1.56,0,0,0-.76-.21,1,1,0,0,0-.62.19,1.08,1.08,0,0,0-.39.54A3.39,3.39,0,0,0,56,80.29v3Z"/><path class="cls-1" d="M61.36,83.3V77.55h.94v.82a2.29,2.29,0,0,1,2-1,2.9,2.9,0,0,1,1,.19,1.72,1.72,0,0,1,.7.49,1.82,1.82,0,0,1,.32.72,5.08,5.08,0,0,1,.06,1V83.3h-1V79.8a2.53,2.53,0,0,0-.12-.89,1,1,0,0,0-.43-.47,1.54,1.54,0,0,0-.73-.17,1.81,1.81,0,0,0-1.16.39,1.9,1.9,0,0,0-.48,1.5V83.3Z"/><path class="cls-1" d="M70.38,83.3V77.55h.94v.81a2.12,2.12,0,0,1,.77-.68,2.32,2.32,0,0,1,1.1-.26,2.15,2.15,0,0,1,1.13.27,1.45,1.45,0,0,1,.62.74,2.24,2.24,0,0,1,1.9-1,2,2,0,0,1,1.42.48,1.92,1.92,0,0,1,.49,1.46V83.3h-1V79.68a2.43,2.43,0,0,0-.1-.84.88.88,0,0,0-.37-.42,1.28,1.28,0,0,0-.63-.15,1.52,1.52,0,0,0-1.08.4A1.69,1.69,0,0,0,75.1,80V83.3h-1V79.57a1.57,1.57,0,0,0-.25-1,1,1,0,0,0-.84-.32,1.64,1.64,0,0,0-.82.21,1.26,1.26,0,0,0-.54.64,3.18,3.18,0,0,0-.17,1.2v3Z"/><path class="cls-1" d="M86.93,81.45l1.08.12a2.43,2.43,0,0,1-1,1.37,3.39,3.39,0,0,1-3.92-.29,2.9,2.9,0,0,1-.79-2.18,3.08,3.08,0,0,1,.8-2.25,2.85,2.85,0,0,1,2.09-.8,2.75,2.75,0,0,1,2,.79,3,3,0,0,1,.79,2.21s0,.14,0,.26H83.43A2.07,2.07,0,0,0,84,82.12a1.87,1.87,0,0,0,2.27.23A1.91,1.91,0,0,0,86.93,81.45Zm-3.44-1.58h3.45a1.85,1.85,0,0,0-.4-1.08,1.63,1.63,0,0,0-1.29-.57,1.75,1.75,0,0,0-1.22.45A1.77,1.77,0,0,0,83.49,79.87Z"/><path class="cls-1" d="M91.72,83.3V77.55h.94v.82a2.29,2.29,0,0,1,2-1,2.9,2.9,0,0,1,1,.19,1.72,1.72,0,0,1,.7.49,1.82,1.82,0,0,1,.32.72,5.08,5.08,0,0,1,.06,1V83.3h-1V79.8a2.53,2.53,0,0,0-.12-.89,1,1,0,0,0-.43-.47,1.54,1.54,0,0,0-.73-.17,1.81,1.81,0,0,0-1.16.39,1.9,1.9,0,0,0-.48,1.5V83.3Z"/><path class="cls-1" d="M103,82.43l.15.86a4,4,0,0,1-.79.08,2,2,0,0,1-.89-.16,1,1,0,0,1-.44-.44,3.18,3.18,0,0,1-.13-1.15V78.31h-.77v-.76h.77V76.13l1-.58v2H103v.76H102v3.36a1.49,1.49,0,0,0,.06.54.47.47,0,0,0,.18.19.82.82,0,0,0,.36.07Z"/><path class="cls-1" d="M116.76,80.43a2.87,2.87,0,0,1,.95-2.37,3,3,0,0,1,2-.64,2.89,2.89,0,0,1,2.08.78,2.83,2.83,0,0,1,.81,2.15,3.55,3.55,0,0,1-.36,1.74,2.55,2.55,0,0,1-1,1,3.3,3.3,0,0,1-1.49.35,2.87,2.87,0,0,1-2.1-.78A2.94,2.94,0,0,1,116.76,80.43Zm1.07,0a2.36,2.36,0,0,0,.52,1.65,1.75,1.75,0,0,0,1.31.55,1.71,1.71,0,0,0,1.29-.55,2.38,2.38,0,0,0,.52-1.69,2.24,2.24,0,0,0-.52-1.61,1.81,1.81,0,0,0-2.6,0A2.33,2.33,0,0,0,117.83,80.43Z"/><path class="cls-1" d="M126.42,83.3v-5h-.93v-.76h.93v-.61a2.63,2.63,0,0,1,.11-.86,1.29,1.29,0,0,1,.53-.61,2,2,0,0,1,1.07-.24,6.14,6.14,0,0,1,1,.1l-.16.85a3.38,3.38,0,0,0-.62-.05.93.93,0,0,0-.67.19,1,1,0,0,0-.2.7v.53h1.2v.76h-1.2v5Z"/><path class="cls-1" d="M139.9,83.3V75.37H141V83.3Z"/><path class="cls-1" d="M145.28,83.3V77.55h.94v.82a2.29,2.29,0,0,1,2-1,2.9,2.9,0,0,1,1,.19,1.72,1.72,0,0,1,.7.49,1.82,1.82,0,0,1,.32.72,5.08,5.08,0,0,1,.06,1V83.3h-1.05V79.8a2.53,2.53,0,0,0-.12-.89,1,1,0,0,0-.43-.47,1.54,1.54,0,0,0-.73-.17,1.81,1.81,0,0,0-1.16.39,1.9,1.9,0,0,0-.48,1.5V83.3Z"/><path class="cls-1" d="M158.31,83.3v-.73a2,2,0,0,1-1.73.86A2.56,2.56,0,0,1,154.26,82a3.51,3.51,0,0,1-.34-1.56,4,4,0,0,1,.31-1.56,2.32,2.32,0,0,1,.93-1.07,2.6,2.6,0,0,1,1.38-.38,2.25,2.25,0,0,1,1,.22,2.13,2.13,0,0,1,.71.57V75.37h1V83.3ZM155,80.43a2.38,2.38,0,0,0,.5,1.65,1.53,1.53,0,0,0,1.18.55,1.56,1.56,0,0,0,1.17-.52,2.3,2.3,0,0,0,.48-1.6,2.61,2.61,0,0,0-.49-1.73,1.55,1.55,0,0,0-1.21-.55,1.5,1.5,0,0,0-1.16.53A2.49,2.49,0,0,0,155,80.43Z"/><path class="cls-1" d="M163.33,76.49V75.37h1v1.12Zm0,6.81V77.55h1V83.3Z"/><path class="cls-1" d="M172.39,82.59a3.85,3.85,0,0,1-1.12.65,3.3,3.3,0,0,1-1.15.19,2.43,2.43,0,0,1-1.57-.46,1.5,1.5,0,0,1-.54-1.19,1.58,1.58,0,0,1,.2-.77,1.64,1.64,0,0,1,.55-.56,2.83,2.83,0,0,1,.75-.32,8.74,8.74,0,0,1,.93-.14,10.83,10.83,0,0,0,1.87-.34V79.4a1.05,1.05,0,0,0-.29-.84,1.87,1.87,0,0,0-1.2-.33,2,2,0,0,0-1.09.24,1.48,1.48,0,0,0-.52.85l-1-.13a2.18,2.18,0,0,1,.46-1,2,2,0,0,1,.92-.58,4.29,4.29,0,0,1,1.4-.21,3.85,3.85,0,0,1,1.29.18A1.74,1.74,0,0,1,173,78a1.55,1.55,0,0,1,.32.67,4.35,4.35,0,0,1,.06.89v1.3a14.28,14.28,0,0,0,.06,1.72,2.25,2.25,0,0,0,.27.69h-1.1A2.37,2.37,0,0,1,172.39,82.59Zm-.08-2.17a8.48,8.48,0,0,1-1.71.36,4.54,4.54,0,0,0-.92.2.93.93,0,0,0-.41.31.8.8,0,0,0-.15.47.82.82,0,0,0,.32.65,1.45,1.45,0,0,0,.93.26,2.39,2.39,0,0,0,1.08-.25,1.6,1.6,0,0,0,.69-.67,2.27,2.27,0,0,0,.17-1Z"/><path class="cls-1" d="M187.24,83.3V75.37h6.17v.93h-5v2.43h4.72v.93h-4.72v2.7h5.24v.94Z"/><path class="cls-1" d="M197.43,83.3V77.55h.94v.82a2.28,2.28,0,0,1,2-1,2.8,2.8,0,0,1,1,.19,1.59,1.59,0,0,1,.7.49,1.7,1.7,0,0,1,.33.72,5.08,5.08,0,0,1,.06,1V83.3h-1V79.8a2.53,2.53,0,0,0-.12-.89,1,1,0,0,0-.43-.47,1.57,1.57,0,0,0-.73-.17,1.79,1.79,0,0,0-1.16.39,1.9,1.9,0,0,0-.48,1.5V83.3Z"/><path class="cls-1" d="M208.73,82.43l.16.86a4,4,0,0,1-.8.08,1.92,1.92,0,0,1-.88-.16,1,1,0,0,1-.44-.44,3.18,3.18,0,0,1-.13-1.15V78.31h-.77v-.76h.77V76.13l1-.58v2h1v.76h-1v3.36a1.49,1.49,0,0,0,.06.54.37.37,0,0,0,.18.19.8.8,0,0,0,.35.07C208.39,82.47,208.54,82.45,208.73,82.43Z"/><path class="cls-1" d="M216.38,81.45l1.08.12a2.42,2.42,0,0,1-.94,1.37,3,3,0,0,1-1.77.49,2.73,2.73,0,0,1-2.95-3,3,3,0,0,1,.81-2.25,2.83,2.83,0,0,1,2.08-.8,2.74,2.74,0,0,1,2,.79,3,3,0,0,1,.79,2.21s0,.14,0,.26h-4.6a2.07,2.07,0,0,0,.57,1.44,1.89,1.89,0,0,0,2.28.23A1.9,1.9,0,0,0,216.38,81.45Zm-3.44-1.58h3.45a1.78,1.78,0,0,0-.39-1.08,1.66,1.66,0,0,0-1.3-.57,1.71,1.71,0,0,0-1.76,1.65Z"/><path class="cls-1" d="M221.16,83.3V77.55h.94v.87a2.5,2.5,0,0,1,.67-.8,1.22,1.22,0,0,1,.67-.2,2.19,2.19,0,0,1,1.08.32l-.36.9a1.6,1.6,0,0,0-.77-.21,1,1,0,0,0-.62.19,1.08,1.08,0,0,0-.39.54,3.67,3.67,0,0,0-.17,1.13v3Z"/><path class="cls-1" d="M227.53,85.5v-8h1v.75a2.35,2.35,0,0,1,.76-.66,2.3,2.3,0,0,1,1-.22,2.62,2.62,0,0,1,1.4.38,2.45,2.45,0,0,1,.91,1.07,3.61,3.61,0,0,1,.31,1.51,3.71,3.71,0,0,1-.34,1.59,2.47,2.47,0,0,1-1,1.08,2.7,2.7,0,0,1-1.37.38,2.16,2.16,0,0,1-1.62-.73v2.8Zm.95-5A2.35,2.35,0,0,0,229,82.1a1.53,1.53,0,0,0,1.16.53,1.58,1.58,0,0,0,1.2-.55,2.48,2.48,0,0,0,.5-1.7,2.41,2.41,0,0,0-.49-1.65,1.5,1.5,0,0,0-1.16-.54,1.53,1.53,0,0,0-1.18.58A2.44,2.44,0,0,0,228.48,80.46Z"/><path class="cls-1" d="M236.54,83.3V77.55h1v.87a2.5,2.5,0,0,1,.66-.8,1.25,1.25,0,0,1,.67-.2,2.14,2.14,0,0,1,1.08.32l-.36.9a1.6,1.6,0,0,0-.77-.21,1.06,1.06,0,0,0-.62.19,1.08,1.08,0,0,0-.39.54,3.67,3.67,0,0,0-.17,1.13v3Z"/><path class="cls-1" d="M242.92,76.49V75.37H244v1.12Zm0,6.81V77.55H244V83.3Z"/><path class="cls-1" d="M247.54,81.58l1-.15a1.32,1.32,0,0,0,.49.89,1.76,1.76,0,0,0,1.11.31,1.67,1.67,0,0,0,1.07-.28.77.77,0,0,0,.35-.64.58.58,0,0,0-.31-.52,5.54,5.54,0,0,0-1.07-.33,10.58,10.58,0,0,1-1.59-.46,1.57,1.57,0,0,1-.68-.55,1.39,1.39,0,0,1-.23-.77,1.45,1.45,0,0,1,.19-.71,1.7,1.7,0,0,1,.52-.55,2.29,2.29,0,0,1,.66-.28,3.34,3.34,0,0,1,.91-.12,3.76,3.76,0,0,1,1.27.2,1.72,1.72,0,0,1,.82.53,2,2,0,0,1,.36.89l-1,.13a1,1,0,0,0-.4-.7,1.6,1.6,0,0,0-.95-.25,1.8,1.8,0,0,0-1,.23.63.63,0,0,0-.3.52.54.54,0,0,0,.12.34,1,1,0,0,0,.4.26l.93.25a12.26,12.26,0,0,1,1.55.45,1.49,1.49,0,0,1,.69.51,1.32,1.32,0,0,1,.25.83,1.52,1.52,0,0,1-.31.92,1.89,1.89,0,0,1-.88.66,3.35,3.35,0,0,1-1.3.24,3.08,3.08,0,0,1-1.84-.47A2.1,2.1,0,0,1,247.54,81.58Z"/><path class="cls-1" d="M260.54,81.45l1.08.12a2.43,2.43,0,0,1-.95,1.37,3.39,3.39,0,0,1-3.92-.29,2.9,2.9,0,0,1-.79-2.18,3.08,3.08,0,0,1,.8-2.25,2.84,2.84,0,0,1,2.08-.8,2.76,2.76,0,0,1,2,.79,3,3,0,0,1,.78,2.21v.26H257a2.07,2.07,0,0,0,.58,1.44,1.87,1.87,0,0,0,2.27.23A1.91,1.91,0,0,0,260.54,81.45Zm-3.44-1.58h3.45a1.85,1.85,0,0,0-.4-1.08,1.63,1.63,0,0,0-1.29-.57,1.75,1.75,0,0,0-1.22.45A1.73,1.73,0,0,0,257.1,79.87Z"/></g></svg>